# xmcd
#
# Track frame offsets:
#	150
#	15532
#	28742
#	43765
#	60365
#	77877
#	86250
#	99565
#	113595
#	128152
#	141842
#	156680
#	169697
#	186277
#	199770
#	217492
#	235305
#	252057
#	259842
#	270097
#	278127
#	287625
#	296247
#	308440
#
# Disc length: 4274 seconds
#
# Revision: 1
# Processed by: cddbd v1.5.1PL0 Copyright (c) Steve Scherf et al.
# Submitted via: audiograbber 1.83.01
#
DISCID=5c10b018
DTITLE=António Sala - Trinta Anos de Carreira [CD 1)
DYEAR=1996
DGENRE=Pop
TTITLE0=Era assim que eu sonhava
TTITLE1=Velha estrada
TTITLE2=Aleluia
TTITLE3=Minha escola
TTITLE4=Meninos da cidade
TTITLE5=Fadinho dos dois
TTITLE6=Filho (xaile do meu peito)
TTITLE7=A minha aldeia
TTITLE8=Cartas de amor na areia
TTITLE9=P'ra lá do mar
TTITLE10=Lua vai e Lua vem
TTITLE11=Marcha turca
TTITLE12=Recordar
TTITLE13=Quando a noite vem
TTITLE14=Canção de nós
TTITLE15=Caminhos
TTITLE16=Por ti
TTITLE17=Good news
TTITLE18=Go tell it
TTITLE19=Deep river
TTITLE20=Let us break
TTITLE21=Mary
TTITLE22=Amazing Grace
TTITLE23=Um navio, um avião, um comboio, uma auto-estrada... p'ra voltar
EXTD=
EXTT0=
EXTT1=
EXTT2=
EXTT3=
EXTT4=
EXTT5=
EXTT6=
EXTT7=
EXTT8=
EXTT9=
EXTT10=
EXTT11=
EXTT12=
EXTT13=
EXTT14=
EXTT15=
EXTT16=
EXTT17=
EXTT18=
EXTT19=
EXTT20=
EXTT21=
EXTT22=
EXTT23=
PLAYORDER=
